PathFileType	4	(X/Y/Z)	C:/Users/beibeiliu/ov580/test_trc\sequence.21_training_dense_left.trc
DataRate	CameraRate	NumFrames	NumMarkers	Units	OrigDataRate	OrigDataStartFrame	OrigNumFrames
120	120	14	19	mm	120	35	69
Frame#	Time	ThumbCMC			ThumbMCP			ThumbIP			ThumbTip			IndexMCP			IndexPIP			IndexTip			MiddleMCP			MiddlePIP			MiddleTip			RingMCP			RingPIP			RingTip			PinkyMCP			PinkyPIP			PinkyTip			BackHand1			BackHand2			BackHand3	
		X0	Y0	Z0	X1	Y1	Z1	X2	Y2	Z2	X3	Y3	Z3	X4	Y4	Z4	X5	Y5	Z5	X6	Y6	Z6	X7	Y7	Z7	X8	Y8	Z8	X9	Y9	Z9	X10	Y10	Z10	X11	Y11	Z11	X12	Y12	Z12	X13	Y13	Z13	X14	Y14	Z14	X15	Y15	Z15	X16	Y16	Z16	X17	Y17	Z17	X18	Y18	Z18	
34	0.283333	-229.509	39.9105	130.822	-214.552	66.9634	115.129	-200.344	75.2729	93.3556	-182.111	70.9408	74.0281	-214.412	27.4294	60.5104	-189.568	45.8789	44.4176	-170.948	62.1232	55.2541	-202.405	6.27978	52.3844	-186.135	12.3631	29.3829	-168.02	26.4388	8.4433	-185.394	-8.0272	62.9224	-173.814	-2.11894	38.2453	-156.298	5.9159	17.1247	-167.965	-15.347	82.0403	-155.161	-14.1806	59.2729	-145.015	-19.1212	39.8305	-207.299	-16.0149	108.733	-213.347	-19.7731	139.924	-230.122	-0.175893	117.981	
35	0.291667	-244.367	27.9489	130.137	-232.573	50.3615	105.222	-223.295	58.2976	84.2189	-207.683	57.3517	63.0208	-237.348	7.51235	57.1577	-220.689	29.8982	37.1348	-201.547	48.1508	43.7652	-219.444	-16.7069	52.7632	-212.669	-8.92132	26.4659	-201.128	2.09836	1.76262	-201.628	-25.2032	62.1828	-193.747	-22.5897	34.9572	-184.193	-15.3364	13.2017	-181.229	-28.844	74.5654	-171.848	-28.4704	54.6779	-161.48	-34.7842	38.7822	-214.644	-31.2304	109.509	-217.798	-31.1927	141.145	-240.434	-13.6121	123.124	
36	0.3	-254.25	25.3492	129.852	-242.234	44.4487	103.586	-235.783	52.699	81.1947	-225.181	54.8956	55.0996	-250.585	-1.1559	59.4463	-239.05	14.5299	38.0214	-217.613	37.9035	39.2492	-239.58	-23.7862	57.7571	-236.234	-20.2304	30.8238	-222.935	-14.2522	3.74323	-219.646	-32.2171	65.5511	-215.09	-32.8125	40.1285	-208.755	-27.7989	8.57326	-199.08	-33.8242	73.3884	-192.247	-35.4821	54.0337	-181.782	-46.2572	34.0429	-223.971	-34.6832	115.558	-227.434	-32.651	142.663	-251.098	-17.0779	126.234	
37	0.308333	-257.162	36.5094	129.198	-244.285	54.3756	102.441	-237.358	61.6152	81.2688	-228.94	60.8617	54.9601	-264.905	12.6818	57.7544	-251.083	27.7295	37.5318	-228.901	48.0705	38.2727	-257.702	-12.844	60.5834	-255.54	-11.1974	31.2305	-246.134	-7.52532	4.04277	-240.341	-25.1276	64.7117	-240.635	-24.4743	35.2426	-232.894	-26.0029	7.26828	-219.569	-31.0103	77.3451	-213.79	-34.8505	54.2878	-214.622	-43.2229	34.7735	-245.302	-22.7249	117.231	-240.306	-25.7107	144.136	-267.925	-1.88583	126.521	
38	0.316667	-250.125	51.5605	131.372	-232.075	69.9356	105.646	-225.656	73.9819	79.1175	-219.376	64.5301	58.0585	-273.885	37.2314	65.2011	-257.294	50.2226	39.4938	-226.77	55.6351	37.6248	-277.081	14.0255	62.45	-274.975	11.8705	32.3795	-268.236	12.476	1.58569	-264.773	-5.01354	63.5389	-265.232	-8.25816	37.5989	-262.639	-8.99743	10.9944	-244.844	-19.9311	72.1108	-241.996	-27.6697	52.0359	-245.647	-38.4874	27.4633	-258.299	-8.36784	116.227	-256.665	-6.29094	143.472	-274.446	21.0811	130.491	
39	0.325	-237.313	57.8203	132.846	-217.599	67.2859	108.564	-210.266	73.6672	78.0042	-208.553	63.3239	51.7485	-266.147	54.6723	63.2614	-251.313	60.9608	42.7163	-217.206	61.9549	38.7775	-277.597	28.208	61.1266	-277.36	31.069	33.0261	-273.871	30.5608	7.93141	-270.389	11.4805	65.5911	-272.504	8.05961	37.848	-272.957	6.10105	9.59679	-255.914	-10.8472	70.3473	-256.652	-16.1046	49.6746	-262.178	-23.607	26.2485	-265.663	6.5548	117.322	-257.789	1.64218	143.667	-267.584	36.4973	134.659	
40	0.333333	-219.346	66.4852	133.393	-200.567	69.7156	107.112	-192.851	74.5239	80.2814	-191.788	64.9249	54.6498	-250.392	61.988	63.5957	-231.075	66.6091	43.1552	-201.794	59.105	39.9029	-264.224	40.0789	62.0235	-263.948	42.307	35.3566	-259.046	46.8153	6.37927	-260.296	18.2042	64.5762	-262.789	18.5648	39.1587	-261.907	20.0074	9.55108	-250.491	-0.588779	73.7628	-251.563	-8.75275	51.8001	-261.461	-12.2317	30.2814	-258.253	11.8788	113.77	-251.994	10.1136	144.615	-256.41	42.4912	134.023	
41	0.341667	-198.101	63.7523	135.464	-176.823	61.1476	113.041	-166.212	64.5516	80.9682	-170.075	51.4791	58.5188	-223.995	64.3409	66.0911	-206.586	62.5525	42.8021	-177.909	48.5692	41.5579	-241.058	43.1382	59.3094	-237.952	44.8303	32.8667	-231.288	40.4413	4.56242	-241.628	19.7405	64.255	-240.243	21.8598	38.4742	-237.568	21.022	11.1995	-237.741	-2.93414	72.9571	-238.609	-6.7803	51.5702	-248.91	-13.9099	29.312	-243.617	19.0063	114.951	-239.918	17.9858	144.332	-236.068	49.3242	134.13	
42	0.35	-173.327	50.81	134.623	-148.369	47.2272	114.982	-142.541	39.8542	86.0661	-143.811	28.8302	66.5049	-191.777	58.2642	65.9871	-171.138	46.6756	42.7907	-145.135	27.3652	46.5479	-211.335	39.0423	56.9762	-206.862	35.0891	31.3226	-195.292	31.9851	2.17456	-218.849	16.793	64.4319	-217.687	11.2458	36.7549	-212.42	10.8416	11.6877	-222.461	-5.26394	74.9438	-223.552	-9.70492	53.5793	-232.631	-13.7321	33.1414	-225.924	21.14	117.111	-225.792	19.1134	145.372	-212.639	47.8601	132.491	
43	0.358333	-152.023	38.4422	140.665	-131.281	25.3258	120.757	-119.182	18.3403	98.3039	-120.8	4.24468	71.8401	-163.894	39.9484	66.2147	-143.165	31.1249	47.8493	-124.488	5.37221	51.3505	-185.312	27.5064	62.0581	-174.948	24.5431	32.279	-165.464	13.1705	9.50394	-196.778	10.6945	62.6952	-195.07	4.45518	41.5827	-190.207	-3.96449	14.333	-205.902	-7.62678	74.7957	-207.87	-16.4266	57.0823	-215.362	-19.986	37.9383	-207.645	19.9385	114.128	-214.25	16.673	144.972	-190.226	44.1412	133.279	
44	0.366667	-143.955	29.2759	145.048	-115.948	16.0081	126.651	-102.832	7.26625	99.5523	-109.17	-6.37637	80.0217	-145.23	33.8638	71.4492	-127.035	19.4634	52.6491	-108.983	-8.83183	60.4141	-167.455	23.3421	65.0181	-160.071	14.5985	38.8778	-145.917	3.46475	12.8412	-183.388	3.89716	63.4651	-180.295	-2.11107	43.4953	-173.915	-12.0089	16.6387	-193.399	-12.8921	80.559	-195.142	-23.5774	56.4495	-199.956	-25.6964	33.975	-195.864	15.1249	116.695	-200.183	18.1055	144.456	-177.062	41.3106	130.359	
45	0.375	-137.746	31.1686	143.833	-112.378	15.7287	125.98	-101.156	6.10831	106.66	-99.5392	-5.55258	85.9133	-139.474	34.0129	71.0813	-118.121	17.6209	55.4515	-102.139	-7.48306	64.1937	-162.363	23.5062	61.8162	-153.985	11.822	35.1229	-140.651	2.09085	14.3008	-176.433	8.03761	66.3371	-173.421	-1.33533	44.2479	-165.375	-12.5116	15.4631	-188.839	-14.082	76.2627	-188.713	-24.7012	58.9008	-192.579	-27.7783	38.1134	-194.482	13.3951	116.81	-198.431	20.1585	146.028	-174.203	40.5836	132.471	
46	0.383333	-135.598	35.9459	144.254	-108.462	21.4494	131.819	-96.6115	12.0256	110.351	-98.2061	-3.5847	87.2105	-136.86	36.3532	74.1756	-117.04	20.9436	57.1324	-99.7667	-5.84729	68.5251	-157.04	25.1142	63.8465	-145.714	14.9243	36.8665	-133.074	1.86675	17.5668	-174.285	2.83309	68.9493	-165.279	-1.42792	44.9107	-157.821	-14.0154	21.3817	-182.17	-15.1727	77.1901	-178.592	-21.964	62.7012	-178.658	-30.9339	39.8901	-188.635	15.9171	115.684	-196.821	17.2377	146.278	-172.069	41.5207	132.765	
47	0.391667	-140.198	45.6968	148.801	-114.77	33.876	134.123	-93.1107	31.4764	112.703	-88.9629	17.3183	92.3867	-137.185	44.7381	73.7277	-114.849	36.0261	61.3452	-90.7226	15.1194	73.2768	-156.452	28.1503	68.3933	-142.841	19.4834	41.6265	-122.385	12.0048	21.026	-164.523	5.51736	66.8978	-153.993	1.34909	47.415	-141.083	-8.7234	23.763	-170.434	-12.4161	81.856	-163.287	-23.1396	62.1119	-158.781	-30.4438	38.8453	-186.888	13.2784	119.138	-196.494	18.3952	142.483	-177.987	44.7975	132.557	
